<svg xmlns="http://www.w3.org/2000/svg" viewBox="0 0 1000 1000"><path fill="currentColor" stroke="currentColor" stroke-width="1.2" stroke-linejoin="round" d="M287.6 471.4 295.0 472.2 301.7 482.1 322.5 480.8 329.9 486.1 338.1 480.0 340.7 470.5 345.8 465.3 346.3 459.7 353.4 451.4 344.7 435.3 345.0 432.0 349.7 427.3 348.3 420.2 339.0 419.8 336.3 416.8 309.2 416.7 311.4 402.2 307.9 395.5 310.2 388.6 308.6 384.2 311.0 381.9 307.1 372.6 309.8 372.0 311.2 363.7 307.2 358.7 302.1 359.0 299.5 362.7 294.9 360.7 293.3 355.3 289.5 355.6 288.8 350.0 284.9 350.0 276.4 339.6 257.7 339.6 253.9 348.4 249.7 348.7 249.7 351.8 249.6 355.8 244.7 359.2 244.7 364.6 227.4 365.6 221.0 376.9 218.8 376.7 217.3 372.4 212.3 373.9 212.6 377.7 208.4 376.5 203.7 380.8 199.3 376.4 188.4 376.2 186.1 382.0 178.4 386.8 187.9 388.9 204.2 384.6 209.5 387.5 212.4 382.9 214.0 383.7 216.3 387.3 216.2 397.1 212.7 403.8 217.2 416.7 214.4 423.4 215.8 429.9 218.1 430.6 216.9 435.3 221.4 435.5 222.7 442.6 227.4 443.0 229.4 446.7 230.7 444.9 230.5 447.1 235.6 448.5 235.5 451.7 241.0 455.5 249.5 456.3 253.6 453.7 265.7 460.2 270.7 458.9 273.0 464.2 278.6 468.6 281.8 467.4 287.6 471.4ZM170.3 383.1 132.7 367.1 97.7 336.2 34.8 328.7 4.5 317.4 7.0 322.3 0.6 323.4 0.0 329.0 7.4 334.4 5.3 337.7 8.9 340.7 11.1 349.0 16.1 352.1 16.0 356.0 26.0 365.5 25.3 369.6 19.2 376.4 40.4 378.5 42.6 384.9 45.5 386.2 44.8 391.4 66.5 391.2 84.3 377.1 86.7 376.7 85.3 380.3 83.6 417.1 86.0 415.3 91.4 418.9 100.7 415.0 113.6 415.2 129.8 417.1 131.0 420.8 141.9 416.8 148.5 408.1 156.0 409.5 163.6 401.0 172.3 398.6 182.7 390.1 170.3 383.1ZM393.8 323.3 385.6 306.8 391.1 300.5 437.2 198.1 435.6 197.2 444.8 187.3 430.1 191.7 428.1 190.6 428.8 186.8 421.7 184.3 418.2 179.2 412.6 179.3 398.5 171.1 397.1 163.4 393.7 166.7 389.6 164.5 386.5 157.5 379.9 152.6 379.5 146.4 375.7 143.8 375.2 128.4 346.8 128.4 337.6 148.3 340.0 153.6 334.4 157.4 328.8 157.3 324.5 149.2 320.5 147.9 312.1 151.3 309.5 154.4 307.2 168.5 310.9 175.6 307.1 171.9 300.6 170.9 297.0 163.8 285.5 155.1 285.9 152.6 290.8 151.6 293.4 143.5 284.8 122.1 286.9 110.1 282.2 98.4 278.0 94.3 280.5 85.6 271.8 83.1 269.5 79.4 263.9 78.4 256.5 83.4 248.4 84.4 245.9 93.7 239.9 100.2 238.4 96.0 230.3 103.4 228.3 101.5 222.9 106.5 220.8 105.5 218.8 111.5 215.2 111.2 210.0 118.5 208.7 116.6 211.1 112.5 208.8 109.3 190.6 116.3 177.2 103.6 171.5 105.2 171.2 90.7 166.5 86.7 164.0 77.6 158.2 83.2 154.5 82.9 150.3 88.2 143.6 84.8 142.2 88.3 144.9 90.7 110.6 89.6 104.6 91.5 102.9 91.2 102.9 107.5 117.8 108.0 121.0 118.6 115.2 119.4 112.0 116.3 108.8 119.3 97.9 120.7 97.6 139.9 108.6 148.1 108.4 154.3 114.1 164.2 100.2 245.2 97.9 247.2 96.2 244.3 94.2 246.9 91.0 241.3 80.2 241.7 75.7 247.5 51.6 250.8 46.1 256.5 28.9 266.0 25.3 280.2 18.6 289.7 21.0 301.7 8.5 308.4 4.5 317.4 34.8 328.7 97.7 336.2 132.7 367.1 178.4 386.8 186.1 382.0 188.4 376.2 199.3 376.4 203.7 380.8 208.4 376.5 212.6 377.7 212.3 373.9 217.3 372.4 218.8 376.7 221.0 376.9 227.4 365.6 244.5 364.7 245.0 358.7 250.1 354.9 249.7 348.7 253.9 348.4 257.7 339.6 277.0 339.8 284.9 350.0 288.8 350.0 289.7 355.8 293.3 355.3 294.9 360.7 298.4 362.7 305.1 357.8 308.4 360.6 387.1 360.5 389.4 358.6 386.6 358.2 390.3 343.5 387.9 336.2 392.5 330.5 393.8 323.3ZM243.7 45.7 245.3 50.9 242.6 54.8 248.7 65.2 246.9 71.2 262.8 72.2 264.2 78.8 280.5 85.6 278.0 94.3 286.3 107.3 284.8 122.1 293.4 143.5 290.8 151.6 285.3 154.6 297.0 163.8 300.6 170.9 307.1 171.9 310.9 175.6 307.2 168.5 309.5 154.4 312.1 151.3 320.5 147.9 324.5 149.2 328.8 157.3 334.4 157.4 340.0 153.6 337.6 148.3 346.8 128.4 375.2 128.4 375.4 102.8 366.3 99.5 359.2 91.0 355.5 90.1 354.6 76.8 352.0 75.5 347.9 66.2 348.8 56.2 352.6 49.2 350.9 43.8 359.8 34.0 354.4 28.0 356.0 23.0 343.7 19.3 347.1 14.5 348.5 5.3 342.5 0.0 337.0 2.3 329.8 1.3 333.0 8.8 325.2 14.4 322.9 19.4 314.8 18.9 315.7 20.9 310.1 22.2 308.9 26.2 304.9 25.7 299.7 30.0 298.4 28.0 294.3 30.6 287.1 27.9 284.1 32.2 279.3 31.8 279.5 40.9 277.3 39.3 274.1 42.6 267.5 36.8 268.0 33.9 262.5 33.2 260.4 36.5 256.3 32.1 256.2 35.0 252.0 33.9 249.2 35.9 244.2 29.4 234.3 30.0 228.5 25.2 228.1 28.1 236.1 38.0 241.1 40.3 243.7 45.7ZM641.3 261.0 651.3 252.7 656.2 251.5 663.1 238.9 668.9 234.0 672.6 221.7 679.1 214.4 679.0 209.0 681.5 207.8 679.2 204.5 685.5 200.0 685.2 192.4 688.9 190.3 690.7 182.1 687.9 180.2 692.6 175.7 691.9 168.0 694.4 163.2 693.8 161.3 691.6 162.9 691.7 160.7 689.9 163.3 690.9 157.9 688.2 161.2 684.3 161.4 685.4 157.3 680.1 160.0 679.9 155.4 675.9 157.4 674.5 154.1 672.6 157.4 672.1 153.3 669.5 155.5 668.0 152.5 666.8 154.7 663.2 150.3 660.5 152.0 659.3 150.3 659.1 154.1 656.4 149.9 655.3 153.2 653.5 148.8 652.1 150.8 650.8 149.4 650.3 152.6 648.2 149.6 638.9 158.7 635.6 158.2 633.4 154.6 636.3 141.6 623.3 141.0 617.2 138.5 611.5 140.0 611.9 133.9 603.9 131.3 608.8 125.6 592.3 126.4 595.7 120.6 590.8 117.3 585.6 119.7 579.8 130.4 566.2 138.2 554.7 155.2 553.9 162.6 544.2 166.6 543.7 164.5 536.1 162.0 536.5 157.2 533.2 157.0 533.6 150.0 530.8 150.1 529.5 142.8 523.5 138.8 517.5 125.5 519.2 117.6 511.6 111.3 511.2 103.3 508.4 104.1 508.5 100.8 505.6 100.9 505.8 99.1 499.9 99.2 489.7 90.9 483.9 90.1 478.2 89.2 478.0 78.7 473.2 68.9 464.1 70.7 462.5 73.1 454.2 73.6 448.8 70.2 443.8 76.9 449.6 82.8 447.6 88.1 435.2 85.0 427.4 87.6 420.2 83.2 416.7 85.5 414.7 83.9 408.6 91.8 397.7 92.6 397.4 96.6 389.5 94.2 387.9 97.4 384.8 97.7 385.1 102.6 380.2 101.9 377.1 105.1 375.2 103.6 375.7 143.8 379.5 146.4 379.9 152.6 386.5 157.5 387.0 161.7 393.7 166.7 397.1 163.4 398.5 171.1 412.6 179.3 418.2 179.2 421.7 184.3 428.8 186.8 428.1 190.6 430.1 191.7 444.8 187.1 435.6 197.2 437.2 198.1 391.1 300.5 385.6 306.8 386.7 312.2 392.3 318.0 406.3 345.4 405.3 350.8 407.6 359.6 417.3 363.8 420.9 370.5 426.8 372.1 428.3 376.2 590.8 387.4 595.5 373.2 602.8 363.4 606.6 361.7 615.9 345.1 617.6 335.1 611.8 328.5 616.7 320.6 616.1 312.6 629.2 306.3 633.5 298.1 636.7 298.6 635.3 293.7 638.8 291.8 637.8 289.0 640.5 287.1 638.8 282.9 642.9 279.1 636.6 273.4 627.4 272.2 641.3 261.0ZM579.4 80.2 570.5 54.8 569.5 35.2 567.1 34.7 564.5 26.2 555.7 19.6 555.3 31.2 538.0 54.8 533.0 70.5 524.2 79.0 514.9 79.1 516.1 77.1 513.4 74.8 508.2 77.3 502.8 74.1 492.3 79.3 480.5 75.5 478.5 71.8 475.3 72.7 478.0 78.7 478.4 89.6 488.2 90.3 493.4 93.1 495.0 97.0 504.0 98.4 508.5 100.8 508.4 104.1 511.2 103.3 511.6 111.3 519.2 117.6 517.5 125.5 523.5 138.8 529.5 142.8 530.8 150.1 533.7 150.2 533.2 157.0 536.5 157.2 536.1 162.0 545.2 166.8 547.1 163.9 551.4 164.8 554.2 162.4 554.7 155.2 566.2 138.2 579.8 130.4 585.6 119.7 594.0 115.5 599.2 109.1 598.4 91.9 592.3 88.7 585.4 88.6 579.4 80.2ZM585.2 81.1 583.5 83.7 587.3 86.7 588.4 84.5 585.2 81.1ZM660.4 299.7 661.7 295.8 657.4 275.3 650.5 273.2 648.0 269.5 637.1 267.6 627.4 272.2 636.6 273.4 642.7 278.7 638.8 282.9 640.4 287.6 635.3 293.7 636.7 298.6 633.5 298.1 629.6 305.9 616.0 312.9 616.7 320.6 611.8 328.5 617.6 335.1 615.9 345.1 606.6 361.7 602.8 363.4 595.2 373.8 581.4 408.3 581.3 418.8 578.0 428.8 580.1 432.3 578.5 436.0 580.5 439.7 579.4 447.8 581.1 453.7 578.9 458.3 580.9 463.7 583.7 464.8 587.3 456.7 592.9 452.8 589.2 464.1 612.2 475.3 613.0 469.9 618.4 462.9 621.9 467.2 625.1 463.4 631.3 469.8 631.7 476.5 633.9 471.8 634.8 475.6 642.6 472.2 641.9 476.0 644.6 474.4 647.6 476.1 654.1 480.3 655.7 471.0 660.3 475.7 677.2 467.5 684.6 467.6 685.5 463.8 686.7 468.0 693.1 466.2 688.0 467.2 688.5 457.5 691.0 455.6 687.5 454.3 686.3 444.1 684.0 443.8 691.4 440.3 686.8 439.8 688.3 434.7 686.3 433.1 693.9 433.1 685.0 430.4 681.6 425.8 692.2 407.7 699.1 404.3 703.4 398.1 702.8 395.4 697.6 400.9 695.2 396.0 686.8 395.8 683.2 386.2 679.8 384.5 682.0 378.2 676.9 376.3 673.0 367.5 669.3 367.4 673.2 361.9 674.8 352.3 683.0 347.6 684.3 342.0 680.9 337.5 669.9 341.5 658.5 325.8 656.3 325.8 658.6 322.1 655.0 322.4 652.4 319.5 657.9 314.0 660.4 299.7ZM645.6 257.6 627.4 272.2 637.1 267.6 648.0 269.5 650.5 273.2 658.6 276.8 661.7 295.8 657.9 314.0 652.4 319.5 655.0 322.4 658.6 322.1 656.3 325.8 658.5 325.8 669.9 341.5 679.5 337.6 683.9 340.1 683.0 347.6 676.4 349.8 673.2 361.9 669.3 367.4 673.0 367.5 676.9 376.3 682.0 378.2 679.8 384.5 683.2 386.2 686.8 395.8 695.2 396.0 697.3 398.0 701.3 378.1 696.0 363.9 701.7 355.7 709.3 331.8 725.3 323.8 728.5 324.7 731.6 320.4 738.1 317.5 744.8 308.4 752.7 306.8 760.1 310.5 772.5 306.1 774.7 297.3 768.7 290.4 768.1 279.3 774.9 272.1 775.5 268.1 771.8 257.4 774.3 250.1 770.9 243.3 782.9 223.6 791.2 222.2 799.8 212.5 800.2 205.1 789.0 203.7 787.0 205.6 762.8 195.1 759.1 195.4 759.0 198.8 757.5 197.1 753.3 199.7 751.2 198.5 754.5 196.7 755.3 192.8 743.3 205.7 739.0 205.9 744.8 200.7 744.9 196.8 738.1 198.9 734.5 211.5 729.2 212.3 730.1 204.4 736.7 195.0 734.2 190.1 728.6 193.1 733.7 186.1 730.7 179.7 727.0 181.0 728.2 179.3 725.9 178.7 729.8 176.6 728.0 174.9 723.2 176.3 724.3 171.3 722.0 175.1 718.4 172.4 712.3 175.9 713.1 173.5 711.1 172.8 713.2 169.4 708.7 173.0 710.6 168.5 707.9 170.4 704.9 167.9 705.2 164.0 703.6 167.8 702.8 163.6 699.3 166.2 699.3 162.0 697.1 165.9 696.3 162.0 692.2 166.7 692.0 178.3 687.9 180.2 690.7 182.1 688.9 190.3 685.2 192.4 685.5 200.0 679.2 204.5 681.5 207.8 670.1 226.5 668.9 234.0 663.1 238.9 655.8 252.0 651.3 252.7 645.6 257.6ZM733.7 205.0 729.8 211.5 733.7 210.9 733.7 205.0ZM721.6 167.7 721.2 170.9 724.1 169.2 721.6 167.7ZM826.1 346.4 830.5 343.7 831.6 339.3 827.4 326.7 831.5 324.6 835.9 309.5 826.9 305.7 822.5 289.8 822.1 267.9 814.0 259.9 818.0 242.0 817.3 238.6 813.9 238.5 814.3 230.3 811.8 229.5 812.2 221.9 809.7 221.3 813.8 212.1 800.5 205.6 798.7 208.7 800.4 211.0 797.0 216.6 792.3 218.9 790.4 223.1 782.9 223.6 770.9 243.3 774.3 250.1 771.8 257.4 775.5 268.1 774.9 272.1 768.1 279.3 768.7 290.4 774.7 297.3 772.5 306.1 760.1 310.5 753.8 307.0 746.4 308.0 739.2 314.5 728.5 324.7 725.3 323.8 709.3 331.8 701.7 355.7 696.0 363.9 701.3 378.1 698.9 394.2 695.2 398.5 698.1 400.9 698.5 398.2 706.0 394.2 710.9 402.8 710.0 407.6 714.7 412.5 722.5 415.2 731.3 407.5 737.4 405.5 742.4 407.7 754.1 391.7 754.2 387.2 751.0 385.3 749.4 379.8 758.4 372.6 763.7 376.7 771.2 376.3 776.2 381.7 787.5 373.9 799.4 372.0 802.3 366.2 806.7 364.8 810.8 358.3 820.3 350.4 824.3 349.9 826.1 346.4ZM835.9 207.2 812.2 210.0 813.9 214.3 809.8 221.5 812.2 221.9 811.8 229.5 814.3 230.3 813.9 238.5 817.3 238.6 818.0 242.0 814.0 259.9 822.1 267.9 822.5 289.8 826.9 305.7 835.9 309.5 832.1 322.7 852.4 323.2 858.5 326.6 858.2 329.2 866.7 333.2 867.6 336.3 876.4 331.5 881.2 323.1 875.8 312.3 879.5 309.2 878.1 306.8 881.8 299.3 879.9 299.0 881.8 293.9 890.8 287.5 903.8 261.4 913.4 258.9 894.6 244.1 883.1 230.1 878.7 229.5 863.6 217.7 847.1 208.6 835.9 207.2ZM932.1 298.8 937.1 296.2 938.4 300.1 942.7 299.3 945.2 301.4 953.0 300.4 965.3 303.2 970.3 301.4 963.0 275.6 957.3 267.3 945.1 264.4 927.5 265.5 920.7 261.2 916.0 262.0 913.4 258.9 903.8 261.4 892.0 284.3 888.0 290.6 884.6 290.4 880.5 296.1 887.7 301.9 892.1 302.3 898.8 298.2 901.3 293.8 914.0 289.6 915.8 292.8 910.4 297.7 907.7 307.1 912.7 306.7 913.9 310.1 923.8 307.6 926.7 314.1 932.0 309.6 931.5 304.3 933.8 305.0 932.1 298.8ZM905.5 327.1 912.9 321.6 919.1 324.4 920.1 326.9 914.8 330.8 915.8 334.8 910.9 339.5 914.9 339.2 915.8 344.5 920.0 347.9 929.0 343.0 929.4 338.9 933.5 338.0 934.1 335.5 944.7 335.4 956.2 331.3 957.2 326.9 962.9 324.3 973.8 328.7 974.6 318.5 970.3 301.4 965.3 303.2 953.0 300.4 945.2 301.4 942.7 299.3 938.4 300.1 937.1 296.2 932.2 298.1 931.5 301.2 933.8 305.0 931.5 304.3 932.0 309.6 926.7 314.1 923.8 307.6 913.9 310.1 912.7 306.7 907.7 307.1 910.4 297.7 915.8 292.8 914.0 289.6 901.3 293.8 898.8 298.2 892.1 302.3 882.8 299.1 883.5 297.4 880.1 298.6 881.8 299.3 878.1 306.8 879.5 309.2 875.8 312.3 877.9 319.3 881.6 322.0 877.1 330.2 879.7 333.5 886.0 331.9 888.0 335.9 893.0 335.8 905.5 327.1ZM811.4 358.3 817.5 358.2 819.7 361.8 822.2 361.6 824.7 367.8 828.5 369.9 826.1 377.4 829.6 378.2 836.7 375.0 839.0 367.3 846.2 367.0 847.8 361.4 852.7 360.7 852.9 357.1 860.5 353.8 864.3 358.4 875.0 360.5 878.8 365.5 880.7 361.4 882.9 361.9 882.8 365.8 887.7 366.7 888.9 374.3 901.0 361.9 902.4 365.5 909.4 366.0 914.0 371.9 920.8 375.6 923.0 372.7 929.5 374.5 947.2 362.1 950.9 363.7 957.8 361.1 965.7 363.6 973.5 340.0 974.3 330.5 967.7 324.8 960.1 326.0 957.2 326.9 956.2 331.3 946.9 334.9 934.1 335.5 933.5 338.0 929.4 338.9 929.0 343.0 920.0 347.9 915.8 344.5 914.9 339.2 910.9 339.5 916.0 334.5 915.7 329.3 920.1 326.9 913.9 321.6 907.4 323.9 901.1 331.5 893.0 335.8 888.0 335.9 886.0 331.9 880.1 333.9 877.1 330.5 867.7 336.5 866.7 333.2 858.2 329.2 858.5 326.6 852.4 323.2 832.1 322.7 827.3 326.9 829.7 331.4 828.4 334.1 831.7 336.5 830.5 343.7 811.4 358.3ZM894.6 369.8 888.9 374.3 889.8 376.6 920.4 391.0 922.0 395.0 929.2 398.0 930.6 402.1 935.0 404.2 964.5 365.6 965.2 363.0 957.8 361.1 950.9 363.7 947.2 362.1 930.5 374.3 923.0 372.7 921.1 375.6 914.0 371.9 909.4 366.0 902.4 365.5 901.0 361.9 894.6 369.8ZM921.8 394.6 920.4 391.0 894.8 379.0 894.8 389.0 900.3 392.6 901.3 400.1 898.4 402.4 899.6 409.0 896.2 410.8 890.8 409.7 889.2 414.9 895.3 422.2 895.5 427.1 902.4 431.5 908.3 430.5 923.4 410.5 934.8 404.2 930.6 402.1 929.2 398.0 921.8 394.6ZM861.1 354.2 852.9 357.1 852.7 360.7 847.8 361.4 845.9 367.2 839.0 367.3 836.7 375.0 829.6 378.2 826.1 377.4 828.5 369.9 817.5 358.2 810.8 358.3 806.7 364.8 802.3 366.2 799.4 372.0 787.5 373.9 776.2 381.7 771.2 376.3 763.7 376.7 758.4 372.6 749.4 379.8 751.0 385.3 754.2 387.2 754.1 391.7 747.7 402.4 745.0 402.0 742.2 407.8 737.4 405.5 731.0 407.6 722.5 415.2 711.9 410.2 709.7 405.8 710.9 402.8 706.0 394.2 702.8 395.4 700.4 403.2 692.2 407.7 681.6 426.3 685.0 430.4 693.9 433.1 686.3 433.1 688.3 434.7 686.8 439.8 691.4 440.3 684.0 443.8 686.3 444.1 687.5 454.3 691.0 455.6 688.5 457.5 688.0 467.2 693.3 466.4 687.7 470.9 688.0 476.1 694.2 475.9 689.7 479.4 689.8 483.1 691.9 483.8 689.5 485.9 689.3 492.6 691.3 497.9 698.2 503.1 695.4 506.0 696.5 520.5 693.0 524.8 694.5 526.3 696.9 523.3 702.8 522.5 730.5 503.3 738.9 500.3 751.0 502.6 748.6 510.7 757.3 514.9 766.2 510.6 793.3 524.4 800.3 522.1 811.4 532.4 812.0 538.7 827.7 536.7 831.2 540.2 839.3 540.2 847.2 545.2 847.2 552.4 841.2 560.1 838.3 559.9 838.1 568.3 832.9 567.9 829.6 581.2 839.6 589.7 839.7 596.0 853.4 605.1 858.0 596.1 866.6 588.6 864.7 575.0 873.7 541.3 868.4 512.1 871.8 492.4 870.0 487.5 872.7 484.7 871.1 475.1 878.9 468.7 886.5 466.9 893.7 459.0 911.3 428.4 906.8 431.1 899.5 430.2 895.3 427.0 895.3 422.2 889.2 414.9 889.7 409.7 896.2 410.8 899.6 409.0 898.4 402.4 901.3 400.1 900.3 392.6 894.8 389.0 893.4 380.9 894.9 378.6 889.8 376.5 887.3 366.2 882.8 365.8 881.4 361.3 878.5 365.3 875.0 360.5 864.3 358.4 861.1 354.2ZM654.1 605.6 647.3 609.3 639.4 604.9 625.9 606.2 622.9 604.3 616.1 607.1 611.9 613.0 608.0 609.1 601.5 613.0 595.9 611.8 589.1 614.2 583.7 620.5 583.1 624.6 576.1 629.5 575.9 634.6 572.5 634.6 571.1 649.0 584.8 642.1 599.2 646.3 607.9 645.4 615.1 646.9 613.6 650.4 615.7 655.6 621.7 652.1 623.9 659.1 625.6 651.9 639.8 651.4 640.5 648.5 643.6 651.5 646.8 648.6 648.7 651.0 649.7 647.6 655.3 649.0 659.5 646.9 664.7 652.0 663.8 659.3 668.6 664.2 665.1 670.4 670.7 684.1 679.3 682.6 683.3 685.4 678.7 694.8 680.7 699.4 677.9 700.9 680.9 702.4 677.9 706.9 685.8 712.9 686.1 716.0 684.0 716.9 687.6 718.5 687.3 722.2 701.3 720.9 703.1 718.4 700.4 717.2 703.0 713.8 710.8 715.8 751.2 700.7 764.4 699.2 767.3 699.7 767.1 701.8 788.7 691.7 786.2 689.2 793.4 674.3 791.6 672.7 795.9 671.7 800.2 664.2 799.0 656.7 801.4 653.0 810.8 652.6 812.7 646.1 815.7 644.9 816.1 639.3 821.4 634.2 822.5 630.0 818.6 623.4 819.8 621.4 814.2 618.4 822.3 617.4 819.0 612.7 819.7 608.2 815.7 607.8 816.3 604.4 819.0 600.7 825.9 600.5 823.2 595.7 827.6 597.1 832.0 593.7 839.6 596.0 839.6 589.7 829.6 581.2 830.9 572.5 833.2 567.7 838.9 567.2 836.8 565.4 838.1 560.3 841.2 560.1 847.2 552.4 847.2 545.2 839.3 540.2 831.2 540.2 827.7 536.7 812.0 538.7 811.4 532.4 800.3 522.1 793.3 524.4 791.1 521.8 786.6 522.1 772.0 512.1 764.4 510.8 757.3 514.9 748.6 510.7 751.0 502.6 745.7 500.8 737.8 500.1 731.6 502.7 718.7 513.1 715.7 513.0 694.5 526.3 692.9 524.6 696.5 520.5 695.8 517.1 688.8 517.7 684.1 512.0 681.8 514.3 683.1 521.2 673.1 520.8 672.5 525.5 675.1 527.9 672.3 533.8 674.7 535.4 675.8 542.1 663.6 545.7 659.7 557.5 664.8 562.3 667.8 570.2 657.6 580.8 658.5 583.9 664.5 586.5 661.8 592.1 664.0 598.0 654.1 605.6ZM813.5 646.2 810.0 653.0 801.4 653.0 798.9 657.3 800.2 664.2 798.4 667.1 802.6 670.0 802.4 676.6 821.2 681.1 826.3 669.9 835.1 663.1 841.4 646.4 849.8 638.8 852.4 632.4 851.3 618.0 853.2 604.8 836.8 594.6 832.0 593.7 827.6 597.1 823.2 595.7 825.9 600.5 819.0 600.7 815.7 607.8 819.7 608.2 819.0 612.7 822.3 617.4 814.2 617.5 819.8 621.4 818.6 623.4 822.5 630.0 813.5 646.2ZM729.8 722.4 726.0 724.2 723.5 730.4 727.6 734.1 732.8 732.1 727.9 730.5 729.0 726.0 737.1 722.7 736.6 725.0 740.8 726.0 749.2 722.1 756.4 726.5 763.4 725.0 766.8 723.4 763.6 719.0 768.5 716.4 769.9 718.0 767.8 723.4 795.0 724.4 794.6 722.2 798.7 718.5 795.7 717.2 796.3 712.7 803.1 706.7 820.8 698.8 818.4 686.5 821.2 681.1 814.3 679.0 802.4 676.6 802.6 670.0 798.5 667.4 795.9 671.7 791.6 672.7 793.4 674.3 786.2 689.2 788.7 691.7 767.1 701.8 767.3 699.7 764.4 699.2 751.2 700.7 725.7 709.1 729.6 714.5 736.2 713.7 741.6 716.4 739.0 720.2 729.8 722.4ZM736.9 730.1 742.7 729.4 741.4 728.2 739.4 727.1 736.9 730.1ZM678.7 694.8 683.3 685.4 679.3 682.6 670.7 684.1 665.1 670.4 668.6 664.7 663.8 659.3 665.3 653.3 659.3 646.7 655.3 649.0 649.7 647.6 648.7 651.0 646.8 648.6 643.6 651.5 640.5 648.5 639.8 651.4 625.6 651.9 623.9 659.1 621.7 652.1 615.7 655.6 613.6 650.4 615.1 646.9 607.9 645.4 599.2 646.3 584.8 642.1 572.3 648.7 569.9 654.1 563.0 656.9 556.9 664.0 556.0 671.9 549.8 676.9 550.0 682.4 544.8 686.6 545.3 690.7 537.3 701.7 519.1 714.6 532.1 713.5 541.2 716.3 544.0 712.2 553.7 716.1 565.0 716.1 574.3 719.4 576.6 723.4 596.8 722.0 598.6 725.9 605.0 730.1 607.7 742.7 606.2 746.5 609.1 750.1 616.3 759.1 613.7 767.5 631.2 767.4 633.7 769.4 632.3 778.0 640.0 775.3 641.4 780.9 645.6 781.8 643.8 783.8 651.0 774.4 674.9 755.8 686.4 749.5 688.9 751.4 692.7 746.3 697.4 744.5 710.1 746.0 710.7 740.6 718.6 737.8 723.0 733.2 727.6 734.1 723.5 730.4 726.0 724.2 739.0 720.2 740.6 714.8 730.4 714.8 725.6 709.4 710.8 715.8 703.0 713.8 700.4 717.2 703.1 718.4 701.1 721.0 687.3 722.2 687.6 718.5 684.0 716.9 686.1 716.0 685.8 712.9 677.9 706.9 680.9 702.4 677.9 700.9 680.7 699.4 678.7 694.8ZM713.6 746.9 715.0 744.5 712.6 743.1 709.5 747.3 714.5 749.4 713.6 746.9ZM618.1 767.7 613.5 767.2 616.3 759.1 606.2 746.5 607.7 742.7 605.0 730.1 598.6 725.9 597.1 722.2 576.6 723.4 574.3 719.4 565.0 716.1 553.7 716.1 544.0 712.2 541.2 716.3 522.5 713.6 506.7 723.4 503.4 733.2 497.3 736.6 494.4 749.0 488.4 753.7 490.5 759.4 486.3 780.1 481.6 787.4 482.2 791.1 486.1 793.8 494.4 788.5 494.4 791.7 496.5 790.3 500.4 792.8 501.5 799.3 508.1 809.0 514.8 807.8 519.5 811.6 528.3 810.3 542.1 812.9 549.7 816.8 558.9 816.4 561.3 819.9 565.8 817.2 565.4 810.0 569.7 807.4 578.6 807.8 582.3 801.6 588.1 805.0 590.3 802.3 597.8 801.7 607.4 807.6 617.2 801.5 631.2 801.0 635.3 792.5 645.6 781.8 641.4 780.9 640.0 775.3 632.3 778.0 633.7 769.4 631.2 767.4 618.1 767.7ZM535.7 812.7 505.9 808.0 503.0 817.9 505.1 825.7 501.0 831.5 509.6 832.4 512.6 829.5 514.1 832.8 521.0 829.2 522.2 832.8 525.5 831.5 529.5 834.4 536.0 832.7 537.3 834.9 546.5 835.7 549.3 840.4 555.8 839.7 569.5 848.5 580.9 862.8 592.6 865.5 593.3 863.8 602.3 864.6 604.1 868.7 598.2 871.7 597.5 880.6 592.7 885.6 595.4 887.5 593.6 885.1 597.8 883.6 603.6 886.8 613.7 875.7 627.6 865.7 631.2 849.2 634.2 847.2 637.2 838.5 633.1 837.6 630.9 834.1 634.3 832.4 633.5 830.0 631.0 830.1 631.6 821.8 629.1 819.2 633.6 807.6 631.4 800.9 617.2 801.5 607.4 807.6 597.8 801.7 590.3 802.3 588.1 805.0 582.3 801.6 578.6 807.8 569.7 807.4 565.4 810.0 565.8 817.2 561.3 819.9 558.9 816.4 549.9 816.9 542.1 812.9 535.7 812.7ZM498.3 954.1 503.8 957.8 507.3 966.9 517.5 972.2 527.6 966.2 527.7 960.4 531.2 959.0 529.5 963.2 532.1 969.1 528.5 977.0 525.6 978.7 521.8 974.9 518.3 976.0 515.4 983.7 511.2 984.5 508.7 998.6 512.6 1000.0 528.4 987.1 539.4 964.0 544.3 959.5 544.6 957.0 542.8 957.8 544.8 956.1 540.7 957.4 543.9 954.7 540.4 956.5 543.8 953.8 540.5 952.1 541.1 948.9 545.9 947.4 548.4 937.8 555.7 936.6 556.2 933.3 560.5 932.0 559.1 928.0 562.3 926.4 562.1 920.5 564.6 924.6 564.6 917.1 566.6 914.5 567.8 916.8 569.2 913.4 564.2 911.8 564.1 904.1 565.6 908.9 570.8 911.1 570.2 914.1 573.3 915.2 573.7 912.4 579.7 911.7 581.6 909.1 582.2 916.4 580.3 915.7 580.9 912.5 578.3 913.5 579.0 923.2 572.4 927.1 572.1 930.7 567.2 931.7 567.7 937.0 565.0 942.0 560.9 942.3 560.7 945.4 559.8 944.2 550.2 952.0 544.3 951.1 546.6 954.0 544.8 959.0 577.4 932.5 587.8 917.5 596.0 898.2 603.6 886.8 597.5 883.5 593.6 885.1 595.4 887.5 592.7 884.6 597.2 881.4 598.1 871.4 604.1 868.7 602.3 864.6 593.3 863.8 592.6 865.5 587.7 863.7 580.9 862.8 573.5 852.1 559.6 841.6 554.6 839.5 549.3 840.4 546.5 837.5 547.9 836.9 542.6 834.1 541.1 835.6 536.0 832.7 529.5 834.4 525.5 831.5 522.2 832.8 521.0 829.2 514.1 832.8 512.6 829.5 505.9 832.8 498.1 831.1 494.9 834.8 492.3 833.9 489.9 838.6 482.5 838.8 480.0 841.9 476.8 840.7 473.7 846.9 470.0 847.2 471.2 849.1 467.0 849.1 461.1 855.2 452.7 859.1 455.4 861.3 454.8 863.6 450.2 862.1 450.1 865.1 440.0 873.1 436.7 880.4 432.6 881.5 426.8 891.0 406.2 908.9 409.3 911.3 416.9 911.4 420.7 906.2 426.7 906.5 446.6 924.2 447.1 931.8 455.5 928.5 457.7 925.4 465.9 936.1 470.2 938.2 472.0 936.6 476.1 941.0 482.4 941.4 485.6 946.4 498.3 954.1ZM511.8 596.3 498.2 594.3 500.5 588.9 504.3 587.8 504.3 576.7 494.8 586.7 489.5 587.8 482.5 582.9 475.5 586.8 467.8 587.3 444.4 575.1 436.3 579.3 429.0 578.8 421.2 589.6 411.1 594.0 405.3 589.2 404.6 584.8 402.7 585.2 408.1 599.9 411.0 602.4 408.5 602.7 403.3 619.5 405.0 622.4 402.9 623.0 394.2 641.6 401.0 647.0 393.3 652.0 397.6 659.1 397.8 665.7 400.7 666.3 398.4 668.1 401.0 668.9 399.3 670.9 402.0 672.0 399.4 680.5 401.1 681.9 398.3 686.7 400.4 691.0 399.5 696.2 397.2 700.1 402.3 702.8 407.2 701.4 414.3 705.1 428.3 705.4 431.3 705.8 437.5 701.0 441.9 706.1 450.8 706.2 453.5 708.8 456.8 715.8 455.5 720.8 459.1 729.7 458.1 736.8 461.8 749.4 470.5 750.1 480.3 745.6 489.8 752.0 494.4 749.0 497.3 736.6 503.4 733.2 506.7 723.4 537.3 701.7 545.3 690.7 544.8 686.6 550.0 682.4 549.8 676.9 556.0 671.9 556.9 664.0 563.0 656.9 570.1 653.8 570.4 640.7 573.2 633.9 569.3 630.0 544.7 620.8 533.5 613.3 524.0 612.9 522.8 610.3 527.8 605.4 520.0 605.2 518.3 598.6 520.0 597.3 511.8 596.3ZM440.5 376.1 428.3 376.2 426.8 372.1 420.9 370.5 417.3 363.8 407.6 359.6 405.3 350.8 406.3 345.4 394.1 323.5 392.5 330.5 387.9 336.2 390.3 343.5 386.6 358.2 389.4 358.6 387.1 360.5 308.4 360.6 311.2 363.7 309.8 372.0 307.1 372.6 311.0 381.9 308.6 384.2 310.2 388.6 307.9 395.5 311.4 402.2 309.2 416.7 336.3 416.8 339.0 419.8 348.1 420.0 349.8 425.7 344.7 435.3 353.4 451.4 346.3 459.7 345.8 465.3 340.7 470.5 338.1 480.0 330.0 485.9 336.0 488.7 338.2 493.6 335.5 498.8 340.9 509.9 341.7 522.1 333.4 522.1 341.8 531.8 343.4 552.1 389.5 552.0 389.2 557.8 385.7 563.4 387.6 575.6 396.4 583.5 400.4 582.4 404.2 584.4 405.3 589.2 411.1 594.0 421.2 589.6 426.5 581.7 429.0 578.8 436.3 579.3 446.1 575.2 467.8 587.3 475.5 586.8 482.5 582.9 489.5 587.8 494.8 586.7 504.3 576.7 504.3 587.8 500.5 588.9 498.2 594.3 509.7 597.5 520.0 597.3 515.8 588.6 516.4 578.5 521.5 567.4 530.9 559.3 529.8 553.0 538.5 547.0 540.5 542.4 549.5 540.9 558.3 521.2 563.3 518.8 564.9 520.7 569.5 517.4 572.1 501.5 575.8 496.1 574.7 487.2 581.2 476.5 581.3 470.0 584.0 465.2 579.0 459.2 581.1 453.7 579.4 447.8 580.5 439.7 578.5 436.0 580.1 432.3 578.1 428.2 581.3 418.8 581.4 408.3 590.8 387.7 440.5 376.1ZM640.3 536.5 641.2 532.4 660.6 532.4 663.2 534.9 661.6 542.3 663.2 546.1 675.7 542.3 674.7 535.4 672.3 533.8 675.1 527.9 672.5 525.5 672.9 521.0 683.1 521.2 683.4 512.0 688.8 517.7 693.5 518.0 695.3 515.9 695.4 506.0 698.2 503.1 690.4 496.7 689.0 488.6 691.9 483.8 689.8 483.1 689.7 479.4 694.2 475.9 687.8 474.8 689.1 468.8 693.3 466.4 686.7 468.0 685.5 463.8 684.6 467.6 677.2 467.5 664.1 475.1 660.3 475.7 655.7 471.0 654.1 480.3 650.6 476.3 644.6 474.4 641.9 476.0 642.6 472.2 635.3 475.6 633.3 471.9 631.7 476.5 631.3 469.8 624.5 463.3 621.9 467.2 618.4 462.9 615.4 465.3 612.2 475.3 589.2 464.1 592.2 453.1 584.5 461.0 581.2 476.5 574.7 487.2 575.8 496.1 572.1 501.5 569.4 517.6 557.5 522.4 549.5 540.9 540.5 542.4 538.5 547.0 529.8 553.0 531.6 557.7 527.2 564.2 521.5 567.4 516.4 578.5 515.8 588.6 520.2 596.2 518.3 598.6 519.3 604.5 527.8 605.4 522.8 610.3 524.0 612.9 533.5 613.3 538.4 617.7 569.3 630.0 575.3 634.9 576.1 629.5 583.1 624.6 583.7 620.5 589.1 614.2 595.9 611.8 601.5 613.0 608.0 609.1 611.9 613.0 616.1 607.1 622.9 604.3 625.9 606.2 639.4 604.9 647.3 609.3 664.0 598.0 661.8 592.1 664.5 586.5 657.6 582.2 667.8 571.1 664.8 562.3 659.6 558.1 663.4 546.5 639.3 546.5 640.3 536.5ZM645.8 546.5 663.4 546.5 661.6 544.6 663.2 534.9 660.6 533.6 641.2 532.4 639.3 546.5 645.8 546.5Z"/></svg>